<?xml version="1.0" standalone="no"?>
<!DOCTYPE svg PUBLIC "-//W3C//DTD SVG 20010904//EN"
 "http://www.w3.org/TR/2001/REC-SVG-20010904/DTD/svg10.dtd">
<svg version="1.0" xmlns="http://www.w3.org/2000/svg"
 width="1280.000000pt" height="720.000000pt" viewBox="0 0 1280.000000 720.000000"
 preserveAspectRatio="xMidYMid meet">
<metadata>
Created by potrace 1.16, written by Peter Selinger 2001-2019
</metadata>
<g transform="translate(0.000000,720.000000) scale(0.100000,-0.100000)"
fill="#000000" stroke="none">
<path d="M3275 4401 c-47 -21 -171 -131 -244 -214 -155 -177 -251 -375 -251
-516 0 -152 106 -261 253 -261 48 0 169 54 196 88 11 15 12 12 6 -23 -30 -167
-47 -305 -57 -458 -11 -163 -11 -179 5 -194 16 -16 18 -16 34 0 14 14 19 44
24 155 9 163 35 269 107 430 120 268 306 491 537 646 112 75 173 106 210 106
78 0 61 -90 -80 -420 -93 -220 -128 -322 -190 -562 -36 -139 -41 -170 -31
-184 20 -26 44 -10 56 38 40 158 173 492 271 678 182 344 424 601 497 528 38
-38 -10 -164 -149 -394 -137 -226 -236 -454 -270 -619 -19 -91 -17 -223 3
-261 22 -41 59 -64 103 -64 29 0 45 9 84 45 55 52 87 106 136 235 23 62 32 97
26 103 -17 17 -37 -9 -61 -76 -73 -202 -176 -308 -226 -232 -14 21 -16 44 -12
138 9 189 83 379 279 713 100 172 150 286 157 359 4 44 1 55 -23 83 -82 98
-243 -18 -447 -321 -33 -49 -86 -139 -119 -200 -32 -62 -59 -109 -59 -104 0 4
26 67 58 140 83 186 96 230 97 315 0 69 -2 75 -29 99 -39 34 -82 27 -178 -25
-177 -98 -385 -286 -511 -462 -37 -52 -96 -153 -132 -224 -36 -71 -65 -125
-65 -120 0 45 77 369 156 654 30 111 41 238 25 295 -23 86 -104 124 -186 86z
m113 -54 c35 -42 21 -198 -35 -392 -43 -150 -103 -393 -103 -417 0 -23 -8 -23
-33 -1 -18 17 -20 17 -38 -7 -34 -46 -49 -57 -88 -68 -80 -25 -169 -5 -218 49
-56 61 -68 165 -32 272 53 158 145 301 281 433 114 112 162 144 213 144 23 0
47 -6 53 -13z"/>
<path d="M6975 4401 c-47 -21 -171 -131 -244 -214 -287 -328 -332 -646 -106
-753 75 -36 137 -32 222 11 37 20 74 43 82 53 11 15 12 12 6 -23 -30 -167 -47
-305 -57 -458 -11 -165 -11 -178 6 -195 16 -16 18 -16 37 7 16 20 19 39 19
131 0 380 276 848 644 1094 119 79 179 108 218 104 l33 -3 -1 -60 c-2 -70 -22
-132 -127 -375 -80 -187 -123 -316 -186 -557 -32 -126 -37 -155 -27 -169 20
-26 44 -10 56 38 76 282 270 713 414 916 127 181 254 302 316 302 53 0 63 -40
31 -131 -24 -72 -48 -118 -142 -275 -196 -331 -280 -555 -282 -759 -2 -99 12
-139 57 -169 47 -30 91 -21 145 29 55 52 87 106 136 235 25 63 33 96 26 103
-17 17 -36 -8 -61 -76 -73 -202 -176 -308 -226 -232 -14 21 -16 44 -12 138 9
190 82 377 284 722 99 169 154 300 154 365 0 27 -8 48 -26 69 -98 117 -343
-109 -566 -522 -70 -131 -69 -127 11 58 92 215 110 308 71 372 -36 59 -81 56
-202 -12 -115 -65 -221 -148 -333 -261 -126 -127 -217 -254 -300 -418 -36 -71
-65 -125 -65 -120 0 46 88 415 145 615 40 138 54 268 36 334 -23 86 -104 124
-186 86z m115 -56 c36 -43 19 -191 -50 -439 -27 -97 -59 -222 -71 -279 -13
-56 -24 -104 -26 -106 -2 -2 -12 4 -22 13 -23 21 -36 15 -56 -24 -28 -54 -152
-77 -230 -41 -158 72 -150 286 22 551 61 94 255 294 313 322 43 21 103 23 120
3z"/>
<path d="M4950 3863 c-26 -10 -60 -46 -60 -64 0 -20 64 -79 85 -79 23 0 18
-21 -16 -75 -61 -97 -176 -222 -219 -239 -87 -35 -150 -10 -150 58 0 53 8 65
61 87 53 23 135 103 144 142 9 36 3 68 -16 80 -71 44 -249 -166 -249 -295 0
-55 19 -99 52 -122 32 -23 110 -20 163 5 54 25 150 127 225 236 29 43 56 82
60 86 6 7 61 -14 79 -29 2 -2 -17 -34 -41 -72 -56 -88 -75 -161 -56 -217 12
-36 16 -40 48 -40 30 0 40 7 80 57 l45 57 17 -34 c22 -43 29 -47 82 -47 58 0
145 42 293 140 145 96 207 129 260 138 57 9 64 -6 61 -112 l-3 -88 -65 -45
c-464 -317 -597 -446 -563 -547 12 -37 66 -74 107 -74 49 0 140 27 209 61 42
21 90 60 148 118 71 72 93 102 132 181 43 89 87 228 87 275 0 14 17 30 58 54
92 54 125 82 113 94 -7 7 -33 -3 -86 -36 l-75 -46 1 71 c1 78 -15 112 -66 137
-51 25 -102 2 -332 -150 -140 -92 -209 -122 -270 -117 l-38 3 1 50 c2 83 61
178 149 241 23 17 27 25 19 34 -9 9 -17 9 -35 0 -44 -22 -120 -104 -159 -170
-41 -71 -133 -190 -156 -203 -38 -22 -2 120 52 200 24 36 44 76 44 89 0 25
-32 54 -80 74 -27 11 -30 17 -30 55 0 35 -5 48 -26 64 -26 20 -54 25 -84 14z
m919 -544 c-65 -234 -182 -385 -354 -457 -143 -59 -239 -26 -191 66 16 30 153
166 231 229 39 31 323 231 332 233 1 0 -7 -32 -18 -71z"/>
<path d="M8572 3760 c-14 -26 -21 -29 -42 -24 -70 20 -145 -11 -217 -89 -54
-58 -79 -108 -93 -186 -33 -185 105 -189 232 -6 52 75 53 76 62 48 26 -83 100
-97 172 -31 22 19 22 19 33 -13 10 -29 7 -37 -26 -93 -20 -33 -38 -64 -40 -68
-2 -4 1 -9 7 -13 5 -3 26 17 46 45 l37 52 24 -58 c57 -142 142 -150 226 -21
65 99 138 237 132 247 -13 21 -24 8 -79 -89 -67 -118 -130 -201 -153 -201 -30
0 -52 31 -78 111 l-26 78 75 136 c82 145 88 160 68 160 -7 0 -46 -56 -87 -125
-44 -74 -76 -118 -79 -110 -37 104 -51 137 -62 150 -12 12 -16 12 -31 -3 -16
-16 -16 -20 2 -73 l19 -57 -34 -28 c-90 -76 -114 6 -54 183 15 42 24 83 21 92
-10 26 -36 19 -55 -14z m-42 -75 c0 -12 -45 -94 -92 -167 -54 -85 -117 -148
-148 -148 -17 0 -20 7 -20 49 0 35 9 67 36 120 34 69 66 103 129 135 28 15 95
22 95 11z"/>
</g>
</svg>
